<svg xmlns="http://www.w3.org/2000/svg" viewBox="0 0 100 100">
  <defs>
    <linearGradient id="bookGrad" x1="0%" y1="0%" x2="100%" y2="100%">
      <stop offset="0%" style="stop-color:#3b82f6;stop-opacity:1" />
      <stop offset="100%" style="stop-color:#1d4ed8;stop-opacity:1" />
    </linearGradient>
  </defs>

  <!-- Globe background -->
  <circle cx="50" cy="50" r="45" fill="url(#bookGrad)" opacity="0.2"/>

  <!-- Book icon -->
  <g transform="translate(25, 30)">
    <rect x="0" y="0" width="50" height="40" fill="url(#bookGrad)" rx="2"/>
    <rect x="23" y="0" width="4" height="40" fill="#1d4ed8"/>
    <path d="M 5 10 L 20 10 M 5 20 L 20 20 M 5 30 L 20 30" stroke="white" stroke-width="2" fill="none"/>
    <path d="M 30 10 L 45 10 M 30 20 L 45 20 M 30 30 L 45 30" stroke="white" stroke-width="2" fill="none"/>
  </g>

  <!-- Map pin overlay -->
  <path d="M 50 20 C 43 20 37 26 37 33 C 37 43 50 55 50 55 C 50 55 63 43 63 33 C 63 26 57 20 50 20 Z" fill="#f59e0b" opacity="0.8"/>
  <circle cx="50" cy="33" r="4" fill="white"/>
</svg>
